<svg width="779" height="117" viewBox="0 0 779 117" fill="none" xmlns="http://www.w3.org/2000/svg">
    <path fill-rule="evenodd" clip-rule="evenodd"
        d="M72.789 4.21002C72.87 4.45002 72.936 4.69402 72.988 4.94102L73.633 8.04002L46.543 17.388C41.617 19.088 38.732 24.211 39.796 29.326L55.663 105.583L25.406 116.023C24.821 116.225 24.226 116.333 23.639 116.354L23.419 116.359C22.1289 116.356 20.8724 115.948 19.8265 115.192C18.7806 114.437 17.998 113.373 17.589 112.149C17.508 111.909 17.4415 111.665 17.39 111.417L0.132025 28.48C-0.507975 25.405 1.22402 22.332 4.16702 21.316L64.972 0.335023C65.5418 0.137959 66.1376 0.0264137 66.74 0.00402344L66.96 -0.000976562C68.2501 0.00239272 69.5067 0.410467 70.5526 1.16575C71.5985 1.92103 72.3811 2.98545 72.79 4.20902L72.789 4.21002ZM74.486 12.141L90.246 87.879C90.886 90.954 89.154 94.027 86.211 95.043L59.623 104.217L43.863 28.48C43.223 25.405 44.955 22.332 47.899 21.316L74.486 12.141Z"
        fill="black" />
    <path fill-rule="evenodd" clip-rule="evenodd"
        d="M116.52 4.21002C116.601 4.45002 116.667 4.69402 116.719 4.94102L117.421 8.31402L91.124 17.388C86.197 19.088 83.312 24.211 84.376 29.326L100.186 105.31L69.136 116.023C68.552 116.225 67.958 116.333 67.37 116.354L67.15 116.359C65.8599 116.356 64.6033 115.948 63.5574 115.192C62.5115 114.437 61.7289 113.373 61.32 112.149C61.2389 111.909 61.1725 111.665 61.121 111.417L43.863 28.48C43.223 25.405 44.955 22.332 47.898 21.316L108.703 0.335023C109.272 0.138056 109.868 0.026512 110.47 0.00402344L110.69 -0.000976562C111.98 0.00239272 113.237 0.410467 114.283 1.16575C115.328 1.92103 116.111 2.98645 116.52 4.21002ZM118.274 12.415L133.977 87.879C134.617 90.954 132.885 94.027 129.942 95.043L104.147 103.943L88.444 28.48C87.804 25.405 89.535 22.332 92.479 21.316L118.274 12.416V12.415Z"
        fill="white" />
    <path fill-rule="evenodd" clip-rule="evenodd"
        d="M161.1 4.21002C161.181 4.45002 161.247 4.69402 161.299 4.94102L161.944 8.04002L134.854 17.388C129.928 19.088 127.043 24.211 128.107 29.326L143.974 105.583L113.717 116.023C113.132 116.225 112.537 116.333 111.95 116.354L111.73 116.359C110.44 116.356 109.183 115.948 108.138 115.192C107.092 114.437 106.309 113.373 105.9 112.149C105.819 111.909 105.753 111.665 105.701 111.417L88.4431 28.48C87.8031 25.405 89.5351 22.332 92.4781 21.316L153.283 0.335023C153.852 0.138056 154.448 0.026512 155.05 0.00402344L155.27 -0.000976562C156.56 0.00239272 157.817 0.410467 158.863 1.16575C159.909 1.92103 160.691 2.98645 161.1 4.21002ZM162.797 12.141L178.557 87.879C179.197 90.954 177.465 94.027 174.522 95.043L147.934 104.217L132.174 28.48C131.534 25.405 133.266 22.332 136.21 21.316L162.797 12.141Z"
        fill="black" />
    <path fill-rule="evenodd" clip-rule="evenodd"
        d="M204.83 4.21C204.911 4.45 204.977 4.694 205.029 4.941L222.287 87.879C222.927 90.954 221.196 94.028 218.252 95.044L157.447 116.024C156.862 116.225 156.267 116.334 155.68 116.355L155.46 116.359C154.17 116.356 152.913 115.948 151.867 115.192C150.822 114.437 150.039 113.373 149.63 112.149C149.549 111.91 149.483 111.665 149.431 111.418L132.173 28.48C131.533 25.405 133.265 22.331 136.208 21.316L197.013 0.336C197.582 0.138692 198.178 0.0268109 198.78 0.004L199 0C200.29 0.00336928 201.547 0.411444 202.593 1.16673C203.639 1.92201 204.421 2.98643 204.83 4.21Z"
        fill="white" />
    <path
        d="M266.091 80.7273C263.182 80.7273 260.614 79.9924 258.386 78.5227C256.159 77.0379 254.417 74.947 253.159 72.25C251.902 69.5379 251.273 66.3333 251.273 62.6364C251.273 58.9697 251.902 55.7879 253.159 53.0909C254.417 50.3939 256.167 48.3106 258.409 46.8409C260.652 45.3712 263.242 44.6364 266.182 44.6364C268.455 44.6364 270.25 45.0152 271.568 45.7727C272.902 46.5152 273.917 47.3636 274.614 48.3182C275.326 49.2576 275.879 50.0303 276.273 50.6364H276.727V33.4545H282.091V80H276.909V74.6364H276.273C275.879 75.2727 275.318 76.0758 274.591 77.0455C273.864 78 272.826 78.8561 271.477 79.6136C270.129 80.3561 268.333 80.7273 266.091 80.7273ZM266.818 75.9091C268.97 75.9091 270.788 75.3485 272.273 74.2273C273.758 73.0909 274.886 71.5227 275.659 69.5227C276.432 67.5076 276.818 65.1818 276.818 62.5455C276.818 59.9394 276.439 57.6591 275.682 55.7045C274.924 53.7348 273.803 52.2045 272.318 51.1136C270.833 50.0076 269 49.4545 266.818 49.4545C264.545 49.4545 262.652 50.0379 261.136 51.2045C259.636 52.3561 258.508 53.9242 257.75 55.9091C257.008 57.8788 256.636 60.0909 256.636 62.5455C256.636 65.0303 257.015 67.2879 257.773 69.3182C258.545 71.3333 259.682 72.9394 261.182 74.1364C262.697 75.3182 264.576 75.9091 266.818 75.9091ZM306.841 80.7273C303.568 80.7273 300.75 79.9545 298.386 78.4091C296.023 76.8636 294.205 74.7348 292.932 72.0227C291.659 69.3106 291.023 66.2121 291.023 62.7273C291.023 59.1818 291.674 56.053 292.977 53.3409C294.295 50.6136 296.129 48.4848 298.477 46.9545C300.841 45.4091 303.598 44.6364 306.75 44.6364C309.205 44.6364 311.417 45.0909 313.386 46C315.356 46.9091 316.97 48.1818 318.227 49.8182C319.485 51.4545 320.265 53.3636 320.568 55.5455H315.205C314.795 53.9545 313.886 52.5455 312.477 51.3182C311.083 50.0758 309.205 49.4545 306.841 49.4545C304.75 49.4545 302.917 50 301.341 51.0909C299.78 52.1667 298.561 53.6894 297.682 55.6591C296.818 57.6136 296.386 59.9091 296.386 62.5455C296.386 65.2424 296.811 67.5909 297.659 69.5909C298.523 71.5909 299.735 73.1439 301.295 74.25C302.871 75.3561 304.72 75.9091 306.841 75.9091C308.235 75.9091 309.5 75.6667 310.636 75.1818C311.773 74.697 312.735 74 313.523 73.0909C314.311 72.1818 314.871 71.0909 315.205 69.8182H320.568C320.265 71.8788 319.515 73.7348 318.318 75.3864C317.136 77.0227 315.568 78.3258 313.614 79.2955C311.674 80.25 309.417 80.7273 306.841 80.7273ZM338.682 80.8182C336.47 80.8182 334.462 80.4015 332.659 79.5682C330.856 78.7197 329.424 77.5 328.364 75.9091C327.303 74.303 326.773 72.3636 326.773 70.0909C326.773 68.0909 327.167 66.4697 327.955 65.2273C328.742 63.9697 329.795 62.9848 331.114 62.2727C332.432 61.5606 333.886 61.0303 335.477 60.6818C337.083 60.3182 338.697 60.0303 340.318 59.8182C342.439 59.5455 344.159 59.3409 345.477 59.2045C346.811 59.053 347.78 58.803 348.386 58.4545C349.008 58.1061 349.318 57.5 349.318 56.6364V56.4545C349.318 54.2121 348.705 52.4697 347.477 51.2273C346.265 49.9848 344.424 49.3636 341.955 49.3636C339.394 49.3636 337.386 49.9242 335.932 51.0455C334.477 52.1667 333.455 53.3636 332.864 54.6364L327.773 52.8182C328.682 50.697 329.894 49.0455 331.409 47.8636C332.939 46.6667 334.606 45.8333 336.409 45.3636C338.227 44.8788 340.015 44.6364 341.773 44.6364C342.894 44.6364 344.182 44.7727 345.636 45.0455C347.106 45.303 348.523 45.8409 349.886 46.6591C351.265 47.4773 352.409 48.7121 353.318 50.3636C354.227 52.0152 354.682 54.2273 354.682 57V80H349.318V75.2727H349.045C348.682 76.0303 348.076 76.8409 347.227 77.7045C346.379 78.5682 345.25 79.303 343.841 79.9091C342.432 80.5152 340.712 80.8182 338.682 80.8182ZM339.5 76C341.621 76 343.409 75.5833 344.864 74.75C346.333 73.9167 347.439 72.8409 348.182 71.5227C348.939 70.2045 349.318 68.8182 349.318 67.3636V62.4545C349.091 62.7273 348.591 62.9773 347.818 63.2045C347.061 63.4167 346.182 63.6061 345.182 63.7727C344.197 63.9242 343.235 64.0606 342.295 64.1818C341.371 64.2879 340.621 64.3788 340.045 64.4545C338.652 64.6364 337.348 64.9318 336.136 65.3409C334.939 65.7348 333.97 66.3333 333.227 67.1364C332.5 67.9242 332.136 69 332.136 70.3636C332.136 72.2273 332.826 73.6364 334.205 74.5909C335.598 75.5303 337.364 76 339.5 76ZM369.835 33.4545V80H364.472V33.4545H369.835ZM379.659 93.0909V45.0909H384.841V50.6364H385.477C385.871 50.0303 386.417 49.2576 387.114 48.3182C387.826 47.3636 388.841 46.5152 390.159 45.7727C391.492 45.0152 393.295 44.6364 395.568 44.6364C398.508 44.6364 401.098 45.3712 403.341 46.8409C405.583 48.3106 407.333 50.3939 408.591 53.0909C409.848 55.7879 410.477 58.9697 410.477 62.6364C410.477 66.3333 409.848 69.5379 408.591 72.25C407.333 74.947 405.591 77.0379 403.364 78.5227C401.136 79.9924 398.568 80.7273 395.659 80.7273C393.417 80.7273 391.621 80.3561 390.273 79.6136C388.924 78.8561 387.886 78 387.159 77.0455C386.432 76.0758 385.871 75.2727 385.477 74.6364H385.023V93.0909H379.659ZM384.932 62.5455C384.932 65.1818 385.318 67.5076 386.091 69.5227C386.864 71.5227 387.992 73.0909 389.477 74.2273C390.962 75.3485 392.78 75.9091 394.932 75.9091C397.174 75.9091 399.045 75.3182 400.545 74.1364C402.061 72.9394 403.197 71.3333 403.955 69.3182C404.727 67.2879 405.114 65.0303 405.114 62.5455C405.114 60.0909 404.735 57.8788 403.977 55.9091C403.235 53.9242 402.106 52.3561 400.591 51.2045C399.091 50.0379 397.205 49.4545 394.932 49.4545C392.75 49.4545 390.917 50.0076 389.432 51.1136C387.947 52.2045 386.826 53.7348 386.068 55.7045C385.311 57.6591 384.932 59.9394 384.932 62.5455ZM425.381 80L414.744 45.0909H420.381L427.926 71.8182H428.29L435.744 45.0909H441.472L448.835 71.7273H449.199L456.744 45.0909H462.381L451.744 80H446.472L438.835 53.1818H438.29L430.653 80H425.381ZM479.744 80.8182C477.532 80.8182 475.525 80.4015 473.722 79.5682C471.919 78.7197 470.487 77.5 469.426 75.9091C468.366 74.303 467.835 72.3636 467.835 70.0909C467.835 68.0909 468.229 66.4697 469.017 65.2273C469.805 63.9697 470.858 62.9848 472.176 62.2727C473.494 61.5606 474.949 61.0303 476.54 60.6818C478.146 60.3182 479.759 60.0303 481.381 59.8182C483.502 59.5455 485.222 59.3409 486.54 59.2045C487.873 59.053 488.843 58.803 489.449 58.4545C490.07 58.1061 490.381 57.5 490.381 56.6364V56.4545C490.381 54.2121 489.767 52.4697 488.54 51.2273C487.328 49.9848 485.487 49.3636 483.017 49.3636C480.456 49.3636 478.449 49.9242 476.994 51.0455C475.54 52.1667 474.517 53.3636 473.926 54.6364L468.835 52.8182C469.744 50.697 470.956 49.0455 472.472 47.8636C474.002 46.6667 475.669 45.8333 477.472 45.3636C479.29 44.8788 481.078 44.6364 482.835 44.6364C483.956 44.6364 485.244 44.7727 486.699 45.0455C488.169 45.303 489.585 45.8409 490.949 46.6591C492.328 47.4773 493.472 48.7121 494.381 50.3636C495.29 52.0152 495.744 54.2273 495.744 57V80H490.381V75.2727H490.108C489.744 76.0303 489.138 76.8409 488.29 77.7045C487.441 78.5682 486.313 79.303 484.903 79.9091C483.494 80.5152 481.775 80.8182 479.744 80.8182ZM480.562 76C482.684 76 484.472 75.5833 485.926 74.75C487.396 73.9167 488.502 72.8409 489.244 71.5227C490.002 70.2045 490.381 68.8182 490.381 67.3636V62.4545C490.153 62.7273 489.653 62.9773 488.881 63.2045C488.123 63.4167 487.244 63.6061 486.244 63.7727C485.259 63.9242 484.297 64.0606 483.358 64.1818C482.434 64.2879 481.684 64.3788 481.108 64.4545C479.714 64.6364 478.411 64.9318 477.199 65.3409C476.002 65.7348 475.032 66.3333 474.29 67.1364C473.563 67.9242 473.199 69 473.199 70.3636C473.199 72.2273 473.888 73.6364 475.267 74.5909C476.661 75.5303 478.426 76 480.562 76ZM510.898 59V80H505.534V45.0909H510.716V50.5455H511.17C511.989 48.7727 513.231 47.3485 514.898 46.2727C516.564 45.1818 518.716 44.6364 521.352 44.6364C523.716 44.6364 525.784 45.1212 527.557 46.0909C529.33 47.0455 530.708 48.5 531.693 50.4545C532.678 52.3939 533.17 54.8485 533.17 57.8182V80H527.807V58.1818C527.807 55.4394 527.095 53.303 525.67 51.7727C524.246 50.2273 522.292 49.4545 519.807 49.4545C518.095 49.4545 516.564 49.8258 515.216 50.5682C513.883 51.3106 512.83 52.3939 512.057 53.8182C511.284 55.2424 510.898 56.9697 510.898 59ZM562.972 57.5455V62.5455H542.608V57.5455H562.972ZM597.136 52.9091L592.318 54.2727C592.015 53.4697 591.568 52.6894 590.977 51.9318C590.402 51.1591 589.614 50.5227 588.614 50.0227C587.614 49.5227 586.333 49.2727 584.773 49.2727C582.636 49.2727 580.856 49.7652 579.432 50.75C578.023 51.7197 577.318 52.9545 577.318 54.4545C577.318 55.7879 577.803 56.8409 578.773 57.6136C579.742 58.3864 581.258 59.0303 583.318 59.5455L588.5 60.8182C591.621 61.5758 593.947 62.7348 595.477 64.2955C597.008 65.8409 597.773 67.8333 597.773 70.2727C597.773 72.2727 597.197 74.0606 596.045 75.6364C594.909 77.2121 593.318 78.4545 591.273 79.3636C589.227 80.2727 586.848 80.7273 584.136 80.7273C580.576 80.7273 577.629 79.9545 575.295 78.4091C572.962 76.8636 571.485 74.6061 570.864 71.6364L575.955 70.3636C576.439 72.2424 577.356 73.6515 578.705 74.5909C580.068 75.5303 581.848 76 584.045 76C586.545 76 588.53 75.4697 590 74.4091C591.485 73.3333 592.227 72.0455 592.227 70.5455C592.227 69.3333 591.803 68.3182 590.955 67.5C590.106 66.6667 588.803 66.0455 587.045 65.6364L581.227 64.2727C578.03 63.5152 575.682 62.3409 574.182 60.75C572.697 59.1439 571.955 57.1364 571.955 54.7273C571.955 52.7576 572.508 51.0152 573.614 49.5C574.735 47.9848 576.258 46.7955 578.182 45.9318C580.121 45.0682 582.318 44.6364 584.773 44.6364C588.227 44.6364 590.939 45.3939 592.909 46.9091C594.894 48.4242 596.303 50.4242 597.136 52.9091ZM620.483 80.7273C617.119 80.7273 614.218 79.9848 611.778 78.5C609.354 77 607.483 74.9091 606.165 72.2273C604.862 69.5303 604.21 66.3939 604.21 62.8182C604.21 59.2424 604.862 56.0909 606.165 53.3636C607.483 50.6212 609.316 48.4848 611.665 46.9545C614.028 45.4091 616.786 44.6364 619.938 44.6364C621.756 44.6364 623.551 44.9394 625.324 45.5455C627.097 46.1515 628.71 47.1364 630.165 48.5C631.619 49.8485 632.778 51.6364 633.642 53.8636C634.506 56.0909 634.938 58.8333 634.938 62.0909V64.3636H608.028V59.7273H629.483C629.483 57.7576 629.089 56 628.301 54.4545C627.528 52.9091 626.422 51.6894 624.983 50.7955C623.559 49.9015 621.877 49.4545 619.938 49.4545C617.801 49.4545 615.953 49.9848 614.392 51.0455C612.847 52.0909 611.657 53.4545 610.824 55.1364C609.991 56.8182 609.574 58.6212 609.574 60.5455V63.6364C609.574 66.2727 610.028 68.5076 610.938 70.3409C611.862 72.1591 613.142 73.5455 614.778 74.5C616.415 75.4394 618.316 75.9091 620.483 75.9091C621.892 75.9091 623.165 75.7121 624.301 75.3182C625.453 74.9091 626.445 74.303 627.278 73.5C628.112 72.6818 628.756 71.6667 629.21 70.4545L634.392 71.9091C633.847 73.6667 632.93 75.2121 631.642 76.5455C630.354 77.8636 628.763 78.8939 626.869 79.6364C624.975 80.3636 622.847 80.7273 620.483 80.7273ZM643.097 80V45.0909H648.278V50.3636H648.642C649.278 48.6364 650.43 47.2348 652.097 46.1591C653.763 45.0833 655.642 44.5455 657.733 44.5455C658.127 44.5455 658.619 44.553 659.21 44.5682C659.801 44.5833 660.248 44.6061 660.551 44.6364V50.0909C660.369 50.0455 659.953 49.9773 659.301 49.8864C658.665 49.7803 657.991 49.7273 657.278 49.7273C655.581 49.7273 654.066 50.0833 652.733 50.7955C651.415 51.4924 650.369 52.4621 649.597 53.7045C648.839 54.9318 648.46 56.3333 648.46 57.9091V80H643.097ZM696.517 45.0909L683.608 80H678.153L665.244 45.0909H671.062L680.699 72.9091H681.062L690.699 45.0909H696.517ZM716.983 80.7273C713.619 80.7273 710.718 79.9848 708.278 78.5C705.854 77 703.983 74.9091 702.665 72.2273C701.362 69.5303 700.71 66.3939 700.71 62.8182C700.71 59.2424 701.362 56.0909 702.665 53.3636C703.983 50.6212 705.816 48.4848 708.165 46.9545C710.528 45.4091 713.286 44.6364 716.438 44.6364C718.256 44.6364 720.051 44.9394 721.824 45.5455C723.597 46.1515 725.21 47.1364 726.665 48.5C728.119 49.8485 729.278 51.6364 730.142 53.8636C731.006 56.0909 731.438 58.8333 731.438 62.0909V64.3636H704.528V59.7273H725.983C725.983 57.7576 725.589 56 724.801 54.4545C724.028 52.9091 722.922 51.6894 721.483 50.7955C720.059 49.9015 718.377 49.4545 716.438 49.4545C714.301 49.4545 712.453 49.9848 710.892 51.0455C709.347 52.0909 708.157 53.4545 707.324 55.1364C706.491 56.8182 706.074 58.6212 706.074 60.5455V63.6364C706.074 66.2727 706.528 68.5076 707.438 70.3409C708.362 72.1591 709.642 73.5455 711.278 74.5C712.915 75.4394 714.816 75.9091 716.983 75.9091C718.392 75.9091 719.665 75.7121 720.801 75.3182C721.953 74.9091 722.945 74.303 723.778 73.5C724.612 72.6818 725.256 71.6667 725.71 70.4545L730.892 71.9091C730.347 73.6667 729.43 75.2121 728.142 76.5455C726.854 77.8636 725.263 78.8939 723.369 79.6364C721.475 80.3636 719.347 80.7273 716.983 80.7273ZM739.597 80V45.0909H744.778V50.3636H745.142C745.778 48.6364 746.93 47.2348 748.597 46.1591C750.263 45.0833 752.142 44.5455 754.233 44.5455C754.627 44.5455 755.119 44.553 755.71 44.5682C756.301 44.5833 756.748 44.6061 757.051 44.6364V50.0909C756.869 50.0455 756.453 49.9773 755.801 49.8864C755.165 49.7803 754.491 49.7273 753.778 49.7273C752.081 49.7273 750.566 50.0833 749.233 50.7955C747.915 51.4924 746.869 52.4621 746.097 53.7045C745.339 54.9318 744.96 56.3333 744.96 57.9091V80H739.597Z"
        fill="white" />
</svg>
    